<svg id="Base" xmlns="http://www.w3.org/2000/svg" viewBox="0 0 1000 1000"><defs><style>.cls-1{opacity:0.5;}.cls-2{fill:#646464;}</style></defs><g id="Base-2" data-name="Base"><g id="Letter_A" data-name="Letter A"><g class="cls-1"><polygon class="cls-2" points="323.45 875 383.45 875 616.6 375 556.6 375 323.45 875"/></g><g class="cls-1"><polygon class="cls-2" points="484.89 875 509.29 875 604.09 671.7 579.69 671.7 484.89 875"/></g><path class="cls-2" d="M823.69,875h26.06Q718.17,592.84,586.6,310.66L556.6,375,789.75,875h26.06q-66-141.43-131.9-282.87h7.88Z"/><g class="cls-1"><path class="cls-2" d="M569.63,274.26,500,125H440l99.6,213.6Z"/></g><path class="cls-2" d="M690,661l-16.8-36H599.75l-21.11-45.27L557.52,625h0l-8.88,19.06h0L441,875h31.32L572,661Z"/></g><g id="Letter_S" data-name="Letter S"><polygon class="cls-2" points="566.44 553.56 366.6 125 306.6 125 536.44 617.9 566.44 553.56"/><g class="cls-1"><polygon class="cls-2" points="412.54 592.13 378.59 592.13 246.69 875 280.63 875 412.54 592.13"/></g><g class="cls-1"><polygon class="cls-2" points="316.1 125 282.15 125 150.25 407.87 282.15 690.75 316.1 690.75 184.2 407.87 316.1 125"/></g><polygon class="cls-2" points="362.1 592.13 328.15 592.13 196.25 875 230.2 875 362.1 592.13"/><polygon class="cls-2" points="422.15 463.34 388.2 463.34 256.3 746.21 290.25 746.21 422.15 463.34"/><polygon class="cls-2" points="566.44 553.56 366.6 125 306.6 125 536.44 617.9 566.44 553.56"/><polygon class="cls-2" points="349.6 654.3 234.7 407.87 366.6 125 332.65 125 200.75 407.87 332.63 690.7 349.6 654.3"/></g></g></svg>