<svg xmlns="http://www.w3.org/2000/svg" viewBox="0 0 1000 1000"><defs><style>.cls-1{opacity:0.5;}.cls-2{fill:#c8c8c8;}.cls-3{fill:#cd7f32;}</style></defs><g id="With_Background"><g id="Base-2" data-name="Base"><g id="Letter_A" data-name="Letter A"><g class="cls-1"><polygon class="cls-2" points="264.6 1000 344.6 1000 655.47 333.33 575.47 333.33 264.6 1000"/></g><g class="cls-1"><polygon class="cls-2" points="479.85 1000 512.38 1000 638.78 728.93 606.25 728.93 479.85 1000"/></g><path class="cls-2" d="M931.59,1000h34.74Q790.91,623.77,615.46,247.55l-40,85.78L886.33,1000h34.75Q833.14,811.42,745.21,622.84h10.51Z"/><g class="cls-1"><path class="cls-2" d="M592.84,199,500,0H420L552.84,284.8Z"/></g><path class="cls-2" d="M753.29,714.69q-11.19-24-22.4-48.05l-97.9,0L604.85,606.3,576.7,666.67h0l-11.85,25.41h0L421.27,1000H463l133-285.31Z"/></g><g id="Letter_S" data-name="Letter S"><polygon class="cls-3" points="588.59 571.42 322.13 0 242.13 0 548.59 657.2 588.59 571.42"/><g class="cls-1"><polygon class="cls-3" points="383.38 622.84 338.12 622.84 162.25 1000 207.51 1000 383.38 622.84"/></g><g class="cls-1"><polygon class="cls-3" points="254.8 0 209.54 0 33.67 377.16 209.54 754.33 254.8 754.33 78.93 377.16 254.8 0"/></g><polygon class="cls-3" points="316.13 622.84 270.87 622.84 95 1000 140.26 1000 316.13 622.84"/><polygon class="cls-3" points="396.2 451.12 350.94 451.12 175.07 828.28 220.33 828.28 396.2 451.12"/><polygon class="cls-3" points="588.59 571.42 322.13 0 242.13 0 548.59 657.2 588.59 571.42"/><polygon class="cls-3" points="299.47 705.73 146.26 377.16 322.13 0 276.87 0 101 377.16 276.84 754.26 299.47 705.73"/></g></g></g></svg>